<?xml version="1.0" encoding="UTF-8"?>
<svg height="600" width="800" xmlns="http://www.w3.org/2000/svg" xmlns:xlink="http://www.w3.org/1999/xlink">
    <g id="Notes" font-family="'LucidaGrande', 'Lucida Grande', sans-serif" font-size="13">
        <rect fill="white" height="600.0" width="800.0" x="0.0" y="0.0" />
        <g font-size="13">
            <text x="18.0" y="176.0">Small</text>
            <text x="18.0" y="376.0">Medium</text>
            <text x="18.0" y="576.0">Large</text>
        </g>
        <g font-size="9">
            <text x="250.0" y="30.0">Ultralight</text>
            <text x="450.0" y="30.0">Regular</text>
            <text x="650.0" y="30.0">Black</text>
            <text id="template-version" fill="#505050" text-anchor="end" x="785.0" y="575.0">Template v.3.0</text>
            <a href="https://wangchujiang.com/#/app">
                <text fill="#505050" text-anchor="end" x="785.0" y="590.0">https://wangchujiang.com/#/app</text>
            </a>
        </g>
    </g>
    <g id="Guides" stroke="rgb(39, 170, 225)" stroke-width="0.5">
        <path id="Capline-S" d="M18,76 l800,0" />
        <path id="H-reference" d="M85,145.755 L87.685,145.755 L113.369,79.287 L114.052,79.287 L114.052,76 L112.148,76 L85,145.755 Z M95.693,121.536 L130.996,121.536 L130.263,119.313 L96.474,119.313 L95.693,121.536 Z M139.15,145.755 L141.787,145.755 L114.638,76 L113.466,76 L113.466,79.287 L139.15,145.755 Z" stroke="none" />
        <path id="Baseline-S" d="M18,146 l800,0" />
        <path id="left-margin-Ultralight-S" d="M219.904,56 l0,110" />
        <path id="right-margin-Ultralight-S" d="M310.096,56 l0,110" />
        <path id="left-margin-Regular-S" d="M419.904,56 l0,110" />
        <path id="right-margin-Regular-S" d="M510.096,56 l0,110" />
        <path id="left-margin-Black-S" d="M619.904,56 l0,110" />
        <path id="right-margin-Black-S" d="M710.096,56 l0,110" />
        <path id="Capline-M" d="M18,276 l800,0" />
        <path id="Baseline-M" d="M18,346 l800,0" />
        <path id="Capline-L" d="M18,476 l800,0" />
        <path id="Baseline-L" d="M18,546 l800,0" />
    </g>
    <g id="Symbols">
        <g id="Ultralight-S">
            <path d="M247.998,89.811 L247.996,89.811 C247.928,87.507 246.036,85.658 243.715,85.658 C241.395,85.658 239.503,87.507 239.435,89.811 L239.433,89.811 L239.433,120.513 C239.518,120.93 239.562,121.361 239.562,121.803 C239.562,125.349 236.684,128.227 233.138,128.227 C229.592,128.227 226.714,125.349 226.714,121.803 L226.714,89.811 C226.714,80.428 234.332,72.809 243.715,72.809 C253.099,72.809 260.717,80.428 260.717,89.811 L260.717,111.225 L260.719,111.225 C260.787,113.529 262.65,115.379 264.935,115.379 C267.22,115.379 269.083,113.529 269.151,111.225 L269.153,111.225 L269.153,102.027 C269.178,101.432 269.25,100.61 269.431,99.643 C270.883,91.693 277.852,85.658 286.22,85.658 C295.639,85.658 303.286,93.305 303.286,102.725 L303.286,111.225 C303.286,114.735 300.437,117.585 296.927,117.585 C296.797,117.585 296.668,117.581 296.54,117.573 C290.425,116.977 290.438,111.355 290.438,111.355 L290.438,102.595 L290.436,102.595 C290.368,100.291 288.505,98.442 286.22,98.442 C283.934,98.442 282.071,100.291 282.004,102.595 L282.002,102.595 L282.002,111.409 C282.001,111.452 282,111.521 281.997,111.614 C281.791,120.818 274.254,128.227 265,128.227 C256.141,128.227 248.856,121.438 248.069,112.783 L247.998,112.783 L247.998,89.811 Z M244.06,142.767 C241.644,141.295 239.433,139.209 239.433,136.274 C239.433,132.549 242.457,129.525 246.181,129.525 C248.019,129.525 249.378,130.415 250.904,131.455 C254.46,133.879 270.907,143.55 284.769,125.864 C284.971,125.551 286.622,123.658 287.08,123.541 C288.069,122.972 289.216,122.776 290.438,122.776 C294.162,122.776 297.186,125.8 297.186,129.525 C297.186,131.579 296.028,133.287 294.687,134.788 C290.249,139.76 270.765,159.042 244.06,142.767 Z" />
        </g>
        <g id="Regular-S">
            <path d="M447.998,89.811 L447.996,89.811 C447.928,87.507 446.036,85.658 443.715,85.658 C441.395,85.658 439.503,87.507 439.435,89.811 L439.433,89.811 L439.433,120.513 C439.518,120.93 439.562,121.361 439.562,121.803 C439.562,125.349 436.684,128.227 433.138,128.227 C429.592,128.227 426.714,125.349 426.714,121.803 L426.714,89.811 C426.714,80.428 434.332,72.809 443.715,72.809 C453.099,72.809 460.717,80.428 460.717,89.811 L460.717,111.225 L460.719,111.225 C460.787,113.529 462.65,115.379 464.935,115.379 C467.22,115.379 469.084,113.529 469.151,111.225 L469.153,111.225 L469.153,102.027 C469.178,101.432 469.25,100.61 469.431,99.643 C470.883,91.693 477.852,85.658 486.22,85.658 C495.639,85.658 503.286,93.305 503.286,102.725 L503.286,111.225 C503.286,114.735 500.437,117.585 496.927,117.585 C496.797,117.585 496.668,117.581 496.54,117.573 C490.425,116.977 490.438,111.355 490.438,111.355 L490.438,102.595 L490.436,102.595 C490.368,100.291 488.505,98.442 486.22,98.442 C483.934,98.442 482.071,100.291 482.004,102.595 L482.002,102.595 L482.002,111.409 C482.001,111.452 482,111.521 481.997,111.614 C481.791,120.818 474.254,128.227 465,128.227 C456.141,128.227 448.856,121.438 448.069,112.783 L447.998,112.783 L447.998,89.811 Z M444.06,142.767 C441.644,141.295 439.433,139.209 439.433,136.274 C439.433,132.549 442.457,129.525 446.181,129.525 C448.019,129.525 449.378,130.415 450.904,131.455 C454.46,133.879 470.907,143.55 484.769,125.864 C484.971,125.551 486.622,123.658 487.08,123.541 C488.069,122.972 489.216,122.776 490.438,122.776 C494.162,122.776 497.186,125.8 497.186,129.525 C497.186,131.579 496.028,133.287 494.687,134.788 C490.249,139.76 470.765,159.042 444.06,142.767 Z" />
        </g>
        <g id="Black-S">
            <path d="M647.998,89.811 L647.996,89.811 C647.928,87.507 646.036,85.658 643.715,85.658 C641.395,85.658 639.503,87.507 639.435,89.811 L639.433,89.811 L639.433,120.513 C639.518,120.93 639.562,121.361 639.562,121.803 C639.562,125.349 636.684,128.227 633.138,128.227 C629.592,128.227 626.714,125.349 626.714,121.803 L626.714,89.811 C626.714,80.428 634.332,72.809 643.715,72.809 C653.099,72.809 660.717,80.428 660.717,89.811 L660.717,111.225 L660.719,111.225 C660.787,113.529 662.65,115.379 664.935,115.379 C667.22,115.379 669.083,113.529 669.151,111.225 L669.153,111.225 L669.153,102.027 C669.178,101.432 669.25,100.61 669.431,99.643 C670.883,91.693 677.852,85.658 686.22,85.658 C695.639,85.658 703.286,93.305 703.286,102.725 L703.286,111.225 C703.286,114.735 700.437,117.585 696.927,117.585 C696.797,117.585 696.668,117.581 696.54,117.573 C690.425,116.977 690.438,111.355 690.438,111.355 L690.438,102.595 L690.436,102.595 C690.368,100.291 688.505,98.442 686.22,98.442 C683.934,98.442 682.071,100.291 682.004,102.595 L682.002,102.595 L682.002,111.409 C682.001,111.452 682,111.521 681.997,111.614 C681.791,120.818 674.254,128.227 665,128.227 C656.141,128.227 648.856,121.438 648.069,112.783 L647.998,112.783 L647.998,89.811 Z M644.06,142.767 C641.644,141.295 639.433,139.209 639.433,136.274 C639.433,132.549 642.457,129.525 646.181,129.525 C648.019,129.525 649.378,130.415 650.904,131.455 C654.46,133.879 670.907,143.55 684.769,125.864 C684.971,125.551 686.622,123.658 687.08,123.541 C688.069,122.972 689.216,122.776 690.438,122.776 C694.162,122.776 697.186,125.8 697.186,129.525 C697.186,131.579 696.028,133.287 694.687,134.788 C690.249,139.76 670.765,159.042 644.06,142.767 Z" />
        </g>
    </g>
</svg>